<?xml version="1.0"?>
<svg xmlns="http://www.w3.org/2000/svg" xmlns:xlink="http://www.w3.org/1999/xlink" version="1.1" id="Capa_1" x="0px" y="0px" viewBox="0 0 100.62 100.62" style="enable-background:new 0 0 100.62 100.62;" xml:space="preserve" width="512px" height="512px" class=""><g><g>
	<path style="fill-rule: evenodd; clip-rule: evenodd;fill:#1781D5" d="M64.166,0.573c-5.623,1.457-10.469,10.634-9.161,27.321   c1.309,16.686,5.072,19.63,3.271,37.299c-1.799,17.668-5.839,33.38,9.162,35.173c15.05,1.8,15.704-5.562,19.304-35.663   c3.524-29.478,10.434-37.344,4.09-50.716C84.779,1.227,71.624-1.359,64.166,0.573z" data-original="#F9AF46" class="active-path" data-old_color="fill-rule: evenodd clip-rule: evenodd;#1781D5"/>
	<path style="fill-rule: evenodd; clip-rule: evenodd;fill:#FEC401" d="M78.832,72.318c-2.675-2.299,1.244-5.774,4.918-9.955   c3.479-3.959,5.377-7.768,5.159-12.716c-0.202-4.555-6.958-15.475-11.876-20.273c-4.918-4.797-6.598-8.637-13.675,1.2   c-7.077,9.837-9.716,16.435-6.957,22.672c2.758,6.239,11.635,16.074,8.276,18.594c-3.358,2.52-8.919-6.938-10.676-18.714   c-2.137-14.33,3.385-29.481,12.99-34.36c3.544-1.801,0.786-5.197,3.385-5.226c2.727-0.027,0.962,4.424,2.426,4.946   c7.634,2.734,18.416,20.306,18.265,29.481C90.883,59.244,83.665,76.475,78.832,72.318z" data-original="#21A58D" class="" data-old_color="fill-rule: evenodd clip-rule: evenodd;#FEC401"/>
	<path style="fill-rule: evenodd; clip-rule: evenodd;fill:#1781D5" d="M36.454,0.573c5.623,1.457,10.469,10.634,9.161,27.321   c-1.309,16.686-5.072,19.63-3.271,37.299c1.799,17.668,5.839,33.38-9.162,35.173c-15.051,1.8-15.705-5.562-19.305-35.663   C10.353,35.226,3.444,27.36,9.787,13.987C15.84,1.227,28.996-1.359,36.454,0.573z" data-original="#F9AF46" class="active-path" data-old_color="fill-rule: evenodd clip-rule: evenodd;#1781D5"/>
	<path style="fill-rule: evenodd; clip-rule: evenodd;fill:#FEC401" d="M21.788,72.318c2.674-2.299-1.244-5.774-4.918-9.955   c-3.479-3.959-5.377-7.768-5.158-12.716c0.202-4.555,6.958-15.475,11.875-20.273c4.919-4.797,6.599-8.637,13.676,1.2   c7.077,9.837,9.716,16.435,6.957,22.672c-2.759,6.239-11.635,16.074-8.277,18.594s8.92-6.938,10.676-18.714   c2.137-14.33-3.385-29.481-12.99-34.36c-3.545-1.801-0.787-5.197-3.386-5.226c-2.727-0.027-0.962,4.424-2.426,4.946   C20.182,21.22,9.402,38.791,9.552,47.967C9.738,59.244,16.954,76.475,21.788,72.318z" data-original="#21A58D" class="" data-old_color="fill-rule: evenodd clip-rule: evenodd;#FEC401"/>
</g></g> </svg>
