<?xml version="1.0"?>
<svg xmlns="http://www.w3.org/2000/svg" xmlns:xlink="http://www.w3.org/1999/xlink" version="1.1" id="Capa_1" x="0px" y="0px" viewBox="0 0 512 512" style="enable-background:new 0 0 512 512;" xml:space="preserve" width="512px" height="512px" class=""><g><path style="fill:#1781D5" d="M416.076,13.364C270.558-14.072,275.996,146.449,284.262,213.046  c2.119,17.062,4.418,27.956,4.418,27.956s3.228,14.773,1.329,55.952c-1.049,22.689-3.658,53.404-9.215,94.094  c0,0-19.82,107.147,64.668,110.815c69.796,3.058,100.47-92.115,112.414-147.897c4.808-22.439,10.805-48.526,17.591-72.014  c1.699-5.867,3.438-11.564,5.227-17.002c5.567-16.952,9.915-32.784,13.173-47.566C533.288,38.952,416.076,13.364,416.076,13.364z" data-original="#85E374" class="" data-old_color="#1781d5"/><path style="fill:#FEC401" d="M493.868,217.383c-3.258,14.783-7.606,30.615-13.173,47.566c-1.789,5.437-3.528,11.134-5.227,17.002  l-0.18-0.05c-19.76-73.684-67.167-125.798-83.339-125.798c-15.812,0-80.97,69.296-101.94,140.85  c1.899-41.18-1.329-55.952-1.329-55.952s-2.299-10.895-4.418-27.956c23.938-37.551,60.89-81.1,87.697-92.534V96.133  c0-11.035,8.956-19.99,19.99-19.99c11.035,0,19.99,8.956,19.99,19.99v24.378C444.792,134.524,475.637,179.532,493.868,217.383z" data-original="#FF5F96" class="" data-old_color="#fec401"/><path style="fill:#1781D5" d="M231.208,391.048c-5.587-40.81-8.196-71.585-9.235-94.303c-1.879-41.02,1.339-55.742,1.339-55.742  s2.339-11.095,4.478-28.406c8.236-66.867,13.323-226.608-131.875-199.232c0,0-117.242,25.397-77.762,204.049  c4.088,18.541,9.875,38.731,17.651,60.71c0.37,1.04,0.73,2.089,1.089,3.158c6.437,19.26,11.544,43.868,15.302,63.279  c10.395,53.643,40.43,160.541,114.344,157.302C251.008,498.195,231.208,391.048,231.208,391.048z" data-original="#85E374" class="" data-old_color="#1781d5"/><path style="fill:#FEC401" d="M227.789,212.596c-2.139,17.311-4.478,28.406-4.478,28.406s-3.218,14.723-1.339,55.742  c-20.96-71.385-86.097-140.641-101.89-140.641c-16.132,0-63.319,51.824-83.179,125.178h-0.01c-0.36-1.069-0.72-2.119-1.089-3.158  c-7.776-21.979-13.563-42.169-17.651-60.71c18.221-37.861,49.066-82.889,81.94-96.902V96.133c0-11.035,8.956-19.99,19.99-19.99  c11.035,0,19.99,8.956,19.99,19.99v24.378C166.58,131.816,204.221,175.724,227.789,212.596z" data-original="#FF5F96" class="" data-old_color="#fec401"/><path d="M401.943,391.987c-5.517,0-9.995,4.478-9.995,9.995s4.478,9.995,9.995,9.995c5.517,0,9.995-4.478,9.995-9.995  S407.461,391.987,401.943,391.987z" data-original="#000000" class="active-path" style="fill:#0F0300" data-old_color="#0F0400"/><path d="M120.083,401.982c0-5.517-4.478-9.995-9.995-9.995c-5.517,0-9.995,4.478-9.995,9.995s4.478,9.995,9.995,9.995  C115.605,411.977,120.083,407.5,120.083,401.982z" data-original="#000000" class="active-path" style="fill:#0F0300" data-old_color="#0F0400"/><path d="M390.261,428.629c-4.577-3.089-10.789-1.88-13.875,2.696c-9.235,13.69-18.541,20.633-27.656,20.633  c-5.52,0-9.995,4.476-9.995,9.995s4.475,9.995,9.995,9.995c16.168,0,31.049-9.906,44.228-29.442  C396.044,437.928,394.838,431.717,390.261,428.629z" data-original="#000000" class="active-path" style="fill:#0F0300" data-old_color="#0F0400"/><path d="M487.716,55.994c-20.483-32.01-52.673-49.226-69.788-52.452c-44.557-8.401-79.875-0.709-104.977,22.866  c-50.122,47.066-46.102,144.066-34.942,211.654c2.416,14.631,3.896,28.124,1.502,67.966c-1.457,24.264-4.339,52.274-8.593,83.454  c-0.859,4.832-10.099,61.058,17.606,95.868c13.154,16.525,32.162,25.44,56.498,26.498c72.565,3.159,107.513-85.213,122.625-155.788  c6.159-28.748,11.857-52.08,17.418-71.328C493.79,254.608,539.441,136.834,487.716,55.994z M326.635,40.981  c23.279-21.858,55.905-23.738,87.409-17.828c2.046,0.487,34.506,8.721,56.834,43.616c19.264,30.107,25.38,70.636,18.286,120.732  c-14.687-24.875-38.397-58.07-67.23-73.286V96.133c0-16.534-13.451-29.985-29.985-29.985c-16.534,0-29.985,13.451-29.985,29.985  v18.163c-22.379,12.323-48.804,40.91-70.338,70.321C288.645,137.739,292.208,73.308,326.635,40.981z M440.325,185.452  c-8.694-11.83-30.81-39.344-48.378-39.344c-17.811,0-48.023,36.254-56.859,47.367c-9.261,11.648-23.172,30.75-35.461,54.095  c-1.022-10.905-2.046-9.928-4.989-32.174c23.193-35.611,57.885-75.73,81.24-85.691c3.683-1.571,6.073-5.188,6.073-9.193V96.134  c0-5.511,4.484-9.995,9.995-9.995c5.511,0,9.995,4.484,9.995,9.995v24.378c0,4.005,2.39,7.622,6.074,9.193  c29.298,12.497,57.767,53.474,75.322,88.899c-2.275,9.913-5.025,20.23-8.233,30.837C466.1,226.342,454.179,204.303,440.325,185.452z   M414.749,444.909c-19.034,32.334-42.208,48.112-68.85,46.968c-0.001,0-0.003,0-0.004,0c-18.534-0.806-32.171-6.998-41.691-18.93  c-22.689-28.439-13.673-79.58-13.581-80.081c0.029-0.155,0.054-0.311,0.075-0.466c4.844-35.465,7.946-66.979,9.232-93.719  c11.691-39.023,35.624-73.327,48.935-90.388c21.096-27.042,38.191-40.487,43.274-42.13c3.936,0.978,16.831,10.001,33.137,32.578  c17.369,24.05,31.414,53.613,39.721,83.481c-5.416,19.102-10.953,41.927-16.894,69.653  C442.516,377.956,432.196,415.27,414.749,444.909z" data-original="#000000" class="active-path" style="fill:#0F0300" data-old_color="#0F0400"/><path d="M163.27,511.93c23.778,0,45.473-8.084,60.191-26.574c27.715-34.817,18.474-91.067,17.619-95.876  c-4.264-31.173-7.15-59.181-8.606-83.447c-0.842-14.036-2.201-49.413,0.617-62.97c10.193-48.542,20.858-165.147-34.078-216.685  C170.927,0.028,130.984-4.254,93.798,3.596c-1.707,0.37-42.111,9.545-69.482,52.248C-1.283,95.785-6.698,150.573,8.205,218.689  c0.077,0.621,0.214,1.231,0.405,1.826c15.057,67.545,17.882,43.874,33.773,125.948C56.236,417.95,90.178,511.93,163.27,511.93z   M176.91,193.431c-8.834-11.101-39.04-47.323-56.828-47.323c-17.514,0-39.569,27.378-48.239,39.149  c-13.911,18.888-25.887,41.01-34.927,64.194c-3.202-10.597-5.951-20.896-8.23-30.829c17.511-35.384,45.993-76.413,75.326-88.917  c3.685-1.57,6.076-5.189,6.076-9.194V96.133c0-5.511,4.484-9.995,9.995-9.995s9.995,4.484,9.995,9.995v24.378  c0,4.005,2.391,7.623,6.074,9.193c23.244,9.913,58.644,50.682,81.26,85.254c-1.917,14.571-3.858,23.879-3.865,23.909  c-0.137,0.625-0.671,3.286-1.173,8.614C200.081,224.153,186.171,205.069,176.91,193.431z M49.114,55.735  c21.239-25.534,47.23-32.193,48.839-32.584c37.826-7.095,67.226-1.103,87.383,17.805c18.119,16.999,29.524,44.604,33.898,82.05  c2.482,21.245,2.322,42.729,1.157,61.268c-21.253-28.762-47.986-57.632-70.324-69.972V96.133c0-16.534-13.451-29.985-29.985-29.985  S90.096,79.6,90.096,96.133v18.081c-28.825,15.203-52.521,48.368-67.209,73.246C15.053,131.176,23.953,85.986,49.114,55.735z   M47.342,281.1c8.365-29.561,22.335-58.772,39.542-82.544c16.247-22.446,29.087-31.419,33.007-32.394  c5.079,1.647,22.164,15.084,43.252,42.094c13.295,17.031,37.199,51.257,48.907,90.216c1.276,26.79,4.387,58.376,9.254,93.93  c0.02,0.146,0.045,0.304,0.072,0.449c0.094,0.514,9.1,51.661-13.592,80.1c-10.948,13.719-27.125,18.985-44.414,18.985  c-65.304-0.008-92.6-104.057-101.363-149.277C58.391,323.979,53.498,300.391,47.342,281.1z" data-original="#000000" class="active-path" style="fill:#0F0300" data-old_color="#0F0400"/><path d="M163.261,471.948c5.52,0,9.995-4.476,9.995-9.995s-4.475-9.995-9.995-9.995c-11.4,0-21.562-11.772-28.08-21.647  c-3.04-4.608-9.239-5.878-13.847-2.838c-4.607,3.042-5.877,9.24-2.837,13.847C131.909,461.643,146.969,471.948,163.261,471.948z" data-original="#000000" class="active-path" style="fill:#0F0300" data-old_color="#0F0400"/></g> </svg>
